<svg xmlns="http://www.w3.org/2000/svg" viewBox="0 0 1200 630" width="1200" height="630">
  <defs>
    <linearGradient id="g" x1="0" y1="0" x2="1200" y2="630" gradientUnits="userSpaceOnUse">
      <stop stop-color="#6A48FF"/><stop offset=".55" stop-color="#2BAAE2"/><stop offset="1" stop-color="#0CC99B"/>
    </linearGradient>
    <radialGradient id="auro1" cx="18%" cy="22%" r="55%"><stop stop-color="#6A48FF" stop-opacity=".55"/><stop offset="1" stop-color="#6A48FF" stop-opacity="0"/></radialGradient>
    <radialGradient id="auro2" cx="88%" cy="30%" r="50%"><stop stop-color="#2BAAE2" stop-opacity=".45"/><stop offset="1" stop-color="#2BAAE2" stop-opacity="0"/></radialGradient>
    <radialGradient id="auro3" cx="78%" cy="92%" r="55%"><stop stop-color="#0CC99B" stop-opacity=".4"/><stop offset="1" stop-color="#0CC99B" stop-opacity="0"/></radialGradient>
  </defs>
  <rect width="1200" height="630" fill="#070B1E"/>
  <rect width="1200" height="630" fill="url(#auro1)"/>
  <rect width="1200" height="630" fill="url(#auro2)"/>
  <rect width="1200" height="630" fill="url(#auro3)"/>
  <g opacity=".10" stroke="#9FB4FF" stroke-width="1">
    <line x1="0" y1="157" x2="1200" y2="157"/><line x1="0" y1="315" x2="1200" y2="315"/><line x1="0" y1="473" x2="1200" y2="473"/>
    <line x1="300" y1="0" x2="300" y2="630"/><line x1="600" y1="0" x2="600" y2="630"/><line x1="900" y1="0" x2="900" y2="630"/>
  </g>
  <g transform="translate(90,86)">
    <path d="M30 0l26 15v30L30 60 4 45V15L30 0z" stroke="url(#g)" stroke-width="3.4" stroke-linejoin="round" fill="none"/>
    <path d="M33 12L17 36h10l-3.6 18 17.4-24.5H30L33 12z" fill="url(#g)"/>
    <circle cx="52" cy="14" r="4.4" fill="#0CC99B"/>
    <text x="78" y="44" font-family="Unbounded, sans-serif" font-size="34" letter-spacing="2" fill="#FFFFFF">FLASH<tspan fill="#36D6FF">·AI</tspan></text>
  </g>
  <text x="90" y="300" font-family="Unbounded, sans-serif" font-size="74" fill="#FFFFFF">Your intelligence.</text>
  <text x="90" y="392" font-family="Unbounded, sans-serif" font-size="74" fill="url(#g)">On your servers.</text>
  <text x="92" y="468" font-family="'JetBrains Mono', monospace" font-size="23" letter-spacing="3" fill="#9AA6CC">PRIVATE LLM &#183; SOVEREIGN AI INFRASTRUCTURE</text>
  <rect x="90" y="520" width="430" height="2" fill="url(#g)" opacity=".7"/>
  <text x="92" y="566" font-family="'JetBrains Mono', monospace" font-size="22" letter-spacing="4" fill="#E6ECFF">TEL AVIV &#10005; PARIS</text>
  <text x="1110" y="566" text-anchor="end" font-family="'JetBrains Mono', monospace" font-size="20" letter-spacing="2" fill="#5CFFC9">flash-ai.pro</text>
</svg>
